<svg width="14" height="14" viewBox="0 0 14 14" fill="none" xmlns="http://www.w3.org/2000/svg">
<path fill-rule="evenodd" clip-rule="evenodd" d="M7 1.5C3.96243 1.5 1.5 3.96243 1.5 7C1.5 10.0376 3.96243 12.5 7 12.5C10.0376 12.5 12.5 10.0376 12.5 7C12.5 3.96243 10.0376 1.5 7 1.5ZM0.5 7C0.5 3.41015 3.41015 0.5 7 0.5C10.5899 0.5 13.5 3.41015 13.5 7C13.5 10.5899 10.5899 13.5 7 13.5C3.41015 13.5 0.5 10.5899 0.5 7ZM7 4.5C7.27614 4.5 7.5 4.72386 7.5 5V7.5C7.5 7.77614 7.27614 8 7 8C6.72386 8 6.5 7.77614 6.5 7.5V5C6.5 4.72386 6.72386 4.5 7 4.5ZM6.5 9.5C6.5 9.22386 6.72386 9 7 9H7.005C7.28114 9 7.505 9.22386 7.505 9.5V9.505C7.505 9.78114 7.28114 10.005 7.005 10.005H7C6.72386 10.005 6.5 9.78114 6.5 9.505V9.5Z" fill="#C62222"/>
</svg>
